<?xml version="1.0" encoding="utf-8"?>
<svg xmlns="http://www.w3.org/2000/svg" viewBox="45.5612 81.765 353.9491 294.8332" width="353.949px" height="294.833px" preserveAspectRatio="none"><path style="fill: #0e115e;" d="M 240.588 118.235 C 240.588 118.235 140.588 81.765 138.824 81.765 C 137.06 81.765 62.353 101.765 61.765 106.471 C 61.177 111.177 42.941 183.529 45.882 196.471 C 48.823 209.413 51.765 265.882 56.471 274.118 C 61.177 282.354 106.471 321.176 134.118 335.882 C 161.765 350.588 230.588 374.706 268.824 376.471 C 307.06 378.236 348.235 361.176 363.529 353.529 C 378.823 345.882 401.176 321.765 399.412 307.647 C 397.648 293.529 347.059 271.765 342.353 271.176 C 337.647 270.587 297.059 242.941 296.471 236.471 C 295.883 230.001 297.059 199.412 297.059 195.882 C 297.059 192.352 297.059 176.471 297.647 170 C 298.235 163.529 288.235 142.941 282.353 135.882 C 276.471 128.823 239.412 120.588 240.588 118.235 Z" id="object-0"/></svg>