<?xml version="1.0" encoding="utf-8"?>
<svg xmlns="http://www.w3.org/2000/svg" viewBox="54.7299 85.752 385.0835 350.135" width="385.084px" height="350.135px" preserveAspectRatio="none"><path style="fill: #31a3bd;" d="M 295.882 148.824 C 298.823 157.647 302.95 184.761 314.706 197.646 C 336.571 221.612 351.763 187.646 379.411 202.352 C 407.059 217.058 386.471 218.824 412.353 237.647 C 438.235 256.47 398.235 289.411 398.235 289.411 C 398.235 289.411 444.58 326.978 439.411 351.176 C 434.184 375.648 375.882 391.176 375.882 391.176 C 375.882 391.176 352.693 436.438 331.764 435.882 C 296.913 434.957 262.353 357.646 262.353 357.646 L 197.059 350.588 C 197.059 350.588 103.126 345.211 75.294 312.941 C 63.902 299.733 67.647 261.176 67.647 261.176 C 67.647 261.176 49.074 213.021 56.47 190 C 68.813 151.581 140.588 102.941 140.588 102.941 C 140.588 102.941 168.645 84.012 184.117 85.882 C 213.173 89.393 255.882 136.47 255.882 136.47 L 276.47 134.705 L 295.882 148.824 Z" id="object-0"/></svg> 